<?xml version="1.0" encoding="UTF-8" standalone="no"?>
<!DOCTYPE svg PUBLIC "-//W3C//DTD SVG 1.1//EN"
 "http://www.w3.org/Graphics/SVG/1.1/DTD/svg11.dtd">
<!-- Generated by graphviz version 5.0.0 (20220707.1540)
 -->
<!-- Title: UmlClassDiagram Pages: 1 -->
<svg width="2210pt" height="2173pt"
 viewBox="0.00 0.00 2210.13 2172.60" xmlns="http://www.w3.org/2000/svg" xmlns:xlink="http://www.w3.org/1999/xlink">
<g id="graph0" class="graph" transform="scale(1 1) rotate(0) translate(4 2168.6)">
<title>UmlClassDiagram</title>
<polygon fill="white" stroke="transparent" points="-4,4 -4,-2168.6 2206.13,-2168.6 2206.13,4 -4,4"/>
<!-- 0 -->
<g id="node1" class="node">
<title>0</title>
<polygon fill="#f2f2f2" stroke="black" points="789.67,-2030.5 789.67,-2164.1 1002.02,-2164.1 1002.02,-2030.5 789.67,-2030.5"/>
<text text-anchor="middle" x="895.84" y="-2147.5" font-family="Times,serif" font-size="14.00">&lt;&lt;Abstract&gt;&gt;</text>
<text text-anchor="middle" x="895.84" y="-2130.7" font-family="Times,serif" font-size="14.00">Context</text>
<text text-anchor="middle" x="895.84" y="-2113.9" font-family="Times,serif" font-size="14.00">out/ZombieFactory&#45;flatten.sol</text>
<polyline fill="none" stroke="black" points="789.67,-2105.7 1002.02,-2105.7 "/>
<text text-anchor="start" x="797.67" y="-2089.1" font-family="Times,serif" font-size="14.00">Internal:</text>
<text text-anchor="start" x="797.67" y="-2072.3" font-family="Times,serif" font-size="14.00"> &#160;&#160;&#160;_msgSender(): address</text>
<text text-anchor="start" x="797.67" y="-2055.5" font-family="Times,serif" font-size="14.00"> &#160;&#160;&#160;_msgData(): bytes</text>
<text text-anchor="start" x="797.67" y="-2038.7" font-family="Times,serif" font-size="14.00"> &#160;&#160;&#160;_contextSuffixLength(): uint256</text>
</g>
<!-- 1 -->
<g id="node2" class="node">
<title>1</title>
<polygon fill="#f2f2f2" stroke="black" points="653.38,-1717.5 653.38,-1993.5 1138.31,-1993.5 1138.31,-1717.5 653.38,-1717.5"/>
<text text-anchor="middle" x="895.84" y="-1976.9" font-family="Times,serif" font-size="14.00">&lt;&lt;Abstract&gt;&gt;</text>
<text text-anchor="middle" x="895.84" y="-1960.1" font-family="Times,serif" font-size="14.00">Ownable</text>
<text text-anchor="middle" x="895.84" y="-1943.3" font-family="Times,serif" font-size="14.00">out/ZombieFactory&#45;flatten.sol</text>
<polyline fill="none" stroke="black" points="653.38,-1935.1 1138.31,-1935.1 "/>
<text text-anchor="start" x="661.38" y="-1918.5" font-family="Times,serif" font-size="14.00">Private:</text>
<text text-anchor="start" x="661.38" y="-1901.7" font-family="Times,serif" font-size="14.00"> &#160;&#160;_owner: address</text>
<polyline fill="none" stroke="black" points="653.38,-1893.5 1138.31,-1893.5 "/>
<text text-anchor="start" x="661.38" y="-1876.9" font-family="Times,serif" font-size="14.00">Internal:</text>
<text text-anchor="start" x="661.38" y="-1860.1" font-family="Times,serif" font-size="14.00"> &#160;&#160;&#160;_checkOwner()</text>
<text text-anchor="start" x="661.38" y="-1843.3" font-family="Times,serif" font-size="14.00"> &#160;&#160;&#160;_transferOwnership(newOwner: address)</text>
<text text-anchor="start" x="661.38" y="-1826.5" font-family="Times,serif" font-size="14.00">Public:</text>
<text text-anchor="start" x="661.38" y="-1809.7" font-family="Times,serif" font-size="14.00"> &#160;&#160;&#160;&lt;&lt;event&gt;&gt; OwnershipTransferred(previousOwner: address, newOwner: address)</text>
<text text-anchor="start" x="661.38" y="-1792.9" font-family="Times,serif" font-size="14.00"> &#160;&#160;&#160;&lt;&lt;modifier&gt;&gt; onlyOwner()</text>
<text text-anchor="start" x="661.38" y="-1776.1" font-family="Times,serif" font-size="14.00"> &#160;&#160;&#160;constructor(initialOwner: address)</text>
<text text-anchor="start" x="661.38" y="-1759.3" font-family="Times,serif" font-size="14.00"> &#160;&#160;&#160;owner(): address</text>
<text text-anchor="start" x="661.38" y="-1742.5" font-family="Times,serif" font-size="14.00"> &#160;&#160;&#160;renounceOwnership() &lt;&lt;onlyOwner&gt;&gt;</text>
<text text-anchor="start" x="661.38" y="-1725.7" font-family="Times,serif" font-size="14.00"> &#160;&#160;&#160;transferOwnership(newOwner: address) &lt;&lt;onlyOwner&gt;&gt;</text>
</g>
<!-- 1&#45;&gt;0 -->
<g id="edge1" class="edge">
<title>1&#45;&gt;0</title>
<path fill="none" stroke="black" d="M895.84,-1993.56C895.84,-1995.74 895.84,-1997.92 895.84,-2000.08"/>
<polygon fill="none" stroke="black" points="885.34,-2000.27 895.84,-2030.27 906.34,-2000.27 885.34,-2000.27"/>
</g>
<!-- 2 -->
<g id="node3" class="node">
<title>2</title>
<polygon fill="#f2f2f2" stroke="black" points="98.42,-874.9 98.42,-974.9 375.27,-974.9 375.27,-874.9 98.42,-874.9"/>
<text text-anchor="middle" x="236.84" y="-958.3" font-family="Times,serif" font-size="14.00">&lt;&lt;Interface&gt;&gt;</text>
<text text-anchor="middle" x="236.84" y="-941.5" font-family="Times,serif" font-size="14.00">IERC165</text>
<text text-anchor="middle" x="236.84" y="-924.7" font-family="Times,serif" font-size="14.00">out/ZombieFactory&#45;flatten.sol</text>
<polyline fill="none" stroke="black" points="98.42,-916.5 375.27,-916.5 "/>
<text text-anchor="start" x="106.42" y="-899.9" font-family="Times,serif" font-size="14.00">External:</text>
<text text-anchor="start" x="106.42" y="-883.1" font-family="Times,serif" font-size="14.00"> &#160;&#160;&#160;&#160;supportsInterface(interfaceId: bytes4): bool</text>
</g>
<!-- 3 -->
<g id="node4" class="node">
<title>3</title>
<polygon fill="#f2f2f2" stroke="black" points="0,-456.7 0,-758.3 473.69,-758.3 473.69,-456.7 0,-456.7"/>
<text text-anchor="middle" x="236.84" y="-741.7" font-family="Times,serif" font-size="14.00">&lt;&lt;Interface&gt;&gt;</text>
<text text-anchor="middle" x="236.84" y="-724.9" font-family="Times,serif" font-size="14.00">IERC721</text>
<text text-anchor="middle" x="236.84" y="-708.1" font-family="Times,serif" font-size="14.00">out/ZombieFactory&#45;flatten.sol</text>
<polyline fill="none" stroke="black" points="0,-699.9 473.69,-699.9 "/>
<text text-anchor="start" x="8" y="-683.3" font-family="Times,serif" font-size="14.00">External:</text>
<text text-anchor="start" x="8" y="-666.5" font-family="Times,serif" font-size="14.00"> &#160;&#160;&#160;&#160;balanceOf(owner: address): (balance: uint256)</text>
<text text-anchor="start" x="8" y="-649.7" font-family="Times,serif" font-size="14.00"> &#160;&#160;&#160;&#160;ownerOf(tokenId: uint256): (owner: address)</text>
<text text-anchor="start" x="8" y="-632.9" font-family="Times,serif" font-size="14.00"> &#160;&#160;&#160;&#160;safeTransferFrom(from: address, to: address, tokenId: uint256, data: bytes)</text>
<text text-anchor="start" x="8" y="-616.1" font-family="Times,serif" font-size="14.00"> &#160;&#160;&#160;&#160;safeTransferFrom(from: address, to: address, tokenId: uint256)</text>
<text text-anchor="start" x="8" y="-599.3" font-family="Times,serif" font-size="14.00"> &#160;&#160;&#160;&#160;transferFrom(from: address, to: address, tokenId: uint256)</text>
<text text-anchor="start" x="8" y="-582.5" font-family="Times,serif" font-size="14.00"> &#160;&#160;&#160;&#160;approve(to: address, tokenId: uint256)</text>
<text text-anchor="start" x="8" y="-565.7" font-family="Times,serif" font-size="14.00"> &#160;&#160;&#160;&#160;setApprovalForAll(operator: address, approved: bool)</text>
<text text-anchor="start" x="8" y="-548.9" font-family="Times,serif" font-size="14.00"> &#160;&#160;&#160;&#160;getApproved(tokenId: uint256): (operator: address)</text>
<text text-anchor="start" x="8" y="-532.1" font-family="Times,serif" font-size="14.00"> &#160;&#160;&#160;&#160;isApprovedForAll(owner: address, operator: address): bool</text>
<text text-anchor="start" x="8" y="-515.3" font-family="Times,serif" font-size="14.00">Public:</text>
<text text-anchor="start" x="8" y="-498.5" font-family="Times,serif" font-size="14.00"> &#160;&#160;&#160;&lt;&lt;event&gt;&gt; Transfer(from: address, to: address, tokenId: uint256)</text>
<text text-anchor="start" x="8" y="-481.7" font-family="Times,serif" font-size="14.00"> &#160;&#160;&#160;&lt;&lt;event&gt;&gt; Approval(owner: address, approved: address, tokenId: uint256)</text>
<text text-anchor="start" x="8" y="-464.9" font-family="Times,serif" font-size="14.00"> &#160;&#160;&#160;&lt;&lt;event&gt;&gt; ApprovalForAll(owner: address, operator: address, approved: bool)</text>
</g>
<!-- 3&#45;&gt;2 -->
<g id="edge2" class="edge">
<title>3&#45;&gt;2</title>
<path fill="none" stroke="black" stroke-dasharray="5,2" d="M236.84,-758.35C236.84,-788.13 236.84,-818.28 236.84,-844.55"/>
<polygon fill="none" stroke="black" points="226.34,-844.9 236.84,-874.9 247.34,-844.9 226.34,-844.9"/>
</g>
<!-- 4 -->
<g id="node5" class="node">
<title>4</title>
<polygon fill="#f2f2f2" stroke="black" points="861.99,-0.5 861.99,-419.7 1363.7,-419.7 1363.7,-0.5 861.99,-0.5"/>
<text text-anchor="middle" x="1112.84" y="-403.1" font-family="Times,serif" font-size="14.00">&lt;&lt;Library&gt;&gt;</text>
<text text-anchor="middle" x="1112.84" y="-386.3" font-family="Times,serif" font-size="14.00">Math</text>
<text text-anchor="middle" x="1112.84" y="-369.5" font-family="Times,serif" font-size="14.00">out/ZombieFactory&#45;flatten.sol</text>
<polyline fill="none" stroke="black" points="861.99,-361.3 1363.7,-361.3 "/>
<text text-anchor="start" x="869.99" y="-344.7" font-family="Times,serif" font-size="14.00">Internal:</text>
<text text-anchor="start" x="869.99" y="-327.9" font-family="Times,serif" font-size="14.00"> &#160;&#160;&#160;tryAdd(a: uint256, b: uint256): (bool, uint256)</text>
<text text-anchor="start" x="869.99" y="-311.1" font-family="Times,serif" font-size="14.00"> &#160;&#160;&#160;trySub(a: uint256, b: uint256): (bool, uint256)</text>
<text text-anchor="start" x="869.99" y="-294.3" font-family="Times,serif" font-size="14.00"> &#160;&#160;&#160;tryMul(a: uint256, b: uint256): (bool, uint256)</text>
<text text-anchor="start" x="869.99" y="-277.5" font-family="Times,serif" font-size="14.00"> &#160;&#160;&#160;tryDiv(a: uint256, b: uint256): (bool, uint256)</text>
<text text-anchor="start" x="869.99" y="-260.7" font-family="Times,serif" font-size="14.00"> &#160;&#160;&#160;tryMod(a: uint256, b: uint256): (bool, uint256)</text>
<text text-anchor="start" x="869.99" y="-243.9" font-family="Times,serif" font-size="14.00"> &#160;&#160;&#160;max(a: uint256, b: uint256): uint256</text>
<text text-anchor="start" x="869.99" y="-227.1" font-family="Times,serif" font-size="14.00"> &#160;&#160;&#160;min(a: uint256, b: uint256): uint256</text>
<text text-anchor="start" x="869.99" y="-210.3" font-family="Times,serif" font-size="14.00"> &#160;&#160;&#160;average(a: uint256, b: uint256): uint256</text>
<text text-anchor="start" x="869.99" y="-193.5" font-family="Times,serif" font-size="14.00"> &#160;&#160;&#160;ceilDiv(a: uint256, b: uint256): uint256</text>
<text text-anchor="start" x="869.99" y="-176.7" font-family="Times,serif" font-size="14.00"> &#160;&#160;&#160;mulDiv(x: uint256, y: uint256, denominator: uint256): (result: uint256)</text>
<text text-anchor="start" x="869.99" y="-159.9" font-family="Times,serif" font-size="14.00"> &#160;&#160;&#160;mulDiv(x: uint256, y: uint256, denominator: uint256, rounding: Rounding): uint256</text>
<text text-anchor="start" x="869.99" y="-143.1" font-family="Times,serif" font-size="14.00"> &#160;&#160;&#160;sqrt(a: uint256): uint256</text>
<text text-anchor="start" x="869.99" y="-126.3" font-family="Times,serif" font-size="14.00"> &#160;&#160;&#160;sqrt(a: uint256, rounding: Rounding): uint256</text>
<text text-anchor="start" x="869.99" y="-109.5" font-family="Times,serif" font-size="14.00"> &#160;&#160;&#160;log2(value: uint256): uint256</text>
<text text-anchor="start" x="869.99" y="-92.7" font-family="Times,serif" font-size="14.00"> &#160;&#160;&#160;log2(value: uint256, rounding: Rounding): uint256</text>
<text text-anchor="start" x="869.99" y="-75.9" font-family="Times,serif" font-size="14.00"> &#160;&#160;&#160;log10(value: uint256): uint256</text>
<text text-anchor="start" x="869.99" y="-59.1" font-family="Times,serif" font-size="14.00"> &#160;&#160;&#160;log10(value: uint256, rounding: Rounding): uint256</text>
<text text-anchor="start" x="869.99" y="-42.3" font-family="Times,serif" font-size="14.00"> &#160;&#160;&#160;log256(value: uint256): uint256</text>
<text text-anchor="start" x="869.99" y="-25.5" font-family="Times,serif" font-size="14.00"> &#160;&#160;&#160;log256(value: uint256, rounding: Rounding): uint256</text>
<text text-anchor="start" x="869.99" y="-8.7" font-family="Times,serif" font-size="14.00"> &#160;&#160;&#160;unsignedRoundsUp(rounding: Rounding): bool</text>
</g>
<!-- 5 -->
<g id="node6" class="node">
<title>5</title>
<polygon fill="#f2f2f2" stroke="black" points="1020.67,-540.7 1020.67,-674.3 1205.02,-674.3 1205.02,-540.7 1020.67,-540.7"/>
<text text-anchor="middle" x="1112.84" y="-657.7" font-family="Times,serif" font-size="14.00">&lt;&lt;Enum&gt;&gt;</text>
<text text-anchor="middle" x="1112.84" y="-640.9" font-family="Times,serif" font-size="14.00">Rounding</text>
<text text-anchor="middle" x="1112.84" y="-624.1" font-family="Times,serif" font-size="14.00">out/ZombieFactory&#45;flatten.sol</text>
<polyline fill="none" stroke="black" points="1020.67,-615.9 1205.02,-615.9 "/>
<text text-anchor="start" x="1028.67" y="-599.3" font-family="Times,serif" font-size="14.00">Floor: 0</text>
<text text-anchor="start" x="1028.67" y="-582.5" font-family="Times,serif" font-size="14.00">Ceil: 1</text>
<text text-anchor="start" x="1028.67" y="-565.7" font-family="Times,serif" font-size="14.00">Trunc: 2</text>
<text text-anchor="start" x="1028.67" y="-548.9" font-family="Times,serif" font-size="14.00">Expand: 3</text>
</g>
<!-- 4&#45;&gt;5 -->
<g id="edge4" class="edge">
<title>4&#45;&gt;5</title>
<path fill="none" stroke="black" stroke-dasharray="5,2" d="M1106.1,-419.8C1106.17,-459.33 1106.6,-498.28 1107.39,-530.29"/>
<polygon fill="black" stroke="black" points="1103.89,-530.52 1107.65,-540.43 1110.89,-530.34 1103.89,-530.52"/>
</g>
<!-- 5&#45;&gt;4 -->
<g id="edge3" class="edge">
<title>5&#45;&gt;4</title>
<path fill="none" stroke="black" d="M1118.03,-540.43C1118.9,-509.8 1119.41,-471.44 1119.55,-431.84"/>
<polygon fill="black" stroke="black" points="1119.55,-431.8 1115.57,-425.79 1119.58,-419.8 1123.57,-425.81 1119.55,-431.8"/>
</g>
<!-- 6 -->
<g id="node7" class="node">
<title>6</title>
<polygon fill="#f2f2f2" stroke="black" points="390.26,-2055.7 390.26,-2138.9 771.43,-2138.9 771.43,-2055.7 390.26,-2055.7"/>
<text text-anchor="middle" x="580.84" y="-2122.3" font-family="Times,serif" font-size="14.00">ZombieFactoryIO</text>
<text text-anchor="middle" x="580.84" y="-2105.5" font-family="Times,serif" font-size="14.00">out/ZombieFactory&#45;flatten.sol</text>
<polyline fill="none" stroke="black" points="390.26,-2097.3 771.43,-2097.3 "/>
<text text-anchor="start" x="398.26" y="-2080.7" font-family="Times,serif" font-size="14.00">Public:</text>
<text text-anchor="start" x="398.26" y="-2063.9" font-family="Times,serif" font-size="14.00"> &#160;&#160;&#160;&lt;&lt;event&gt;&gt; NewZombie(id: ZombieId, name: string, dna: uint)</text>
</g>
<!-- 7 -->
<g id="node8" class="node">
<title>7</title>
<polygon fill="#f2f2f2" stroke="black" points="413.67,-1771.9 413.67,-1939.1 598.02,-1939.1 598.02,-1771.9 413.67,-1771.9"/>
<text text-anchor="middle" x="505.84" y="-1922.5" font-family="Times,serif" font-size="14.00">&lt;&lt;Struct&gt;&gt;</text>
<text text-anchor="middle" x="505.84" y="-1905.7" font-family="Times,serif" font-size="14.00">Zombie</text>
<text text-anchor="middle" x="505.84" y="-1888.9" font-family="Times,serif" font-size="14.00">out/ZombieFactory&#45;flatten.sol</text>
<polyline fill="none" stroke="black" points="413.67,-1880.7 598.02,-1880.7 "/>
<text text-anchor="start" x="421.67" y="-1864.1" font-family="Times,serif" font-size="14.00">name: string</text>
<text text-anchor="start" x="421.67" y="-1847.3" font-family="Times,serif" font-size="14.00">dna: uint</text>
<text text-anchor="start" x="421.67" y="-1830.5" font-family="Times,serif" font-size="14.00">level: uint32</text>
<text text-anchor="start" x="421.67" y="-1813.7" font-family="Times,serif" font-size="14.00">readyTime: uint32</text>
<text text-anchor="start" x="421.67" y="-1796.9" font-family="Times,serif" font-size="14.00">winCount: uint16</text>
<text text-anchor="start" x="421.67" y="-1780.1" font-family="Times,serif" font-size="14.00">lossCount: uint16</text>
</g>
<!-- 7&#45;&gt;6 -->
<g id="edge5" class="edge">
<title>7&#45;&gt;6</title>
<path fill="none" stroke="black" d="M531.76,-1939.36C542.6,-1974.02 554.87,-2013.26 564.43,-2043.83"/>
<polygon fill="black" stroke="black" points="564.5,-2044.06 570.11,-2048.59 568.09,-2055.51 562.48,-2050.98 564.5,-2044.06"/>
</g>
<!-- 8 -->
<g id="node9" class="node">
<title>8</title>
<polygon fill="#f2f2f2" stroke="black" points="533.82,-1354.1 533.82,-1680.5 833.87,-1680.5 833.87,-1354.1 533.82,-1354.1"/>
<text text-anchor="middle" x="683.84" y="-1663.9" font-family="Times,serif" font-size="14.00">ZombieFactory</text>
<text text-anchor="middle" x="683.84" y="-1647.1" font-family="Times,serif" font-size="14.00">out/ZombieFactory&#45;flatten.sol</text>
<polyline fill="none" stroke="black" points="533.82,-1638.9 833.87,-1638.9 "/>
<text text-anchor="start" x="541.82" y="-1622.3" font-family="Times,serif" font-size="14.00">Public:</text>
<text text-anchor="start" x="541.82" y="-1605.5" font-family="Times,serif" font-size="14.00"> &#160;&#160;dnaDigits: uint</text>
<text text-anchor="start" x="541.82" y="-1588.7" font-family="Times,serif" font-size="14.00"> &#160;&#160;dnaModulus: uint</text>
<text text-anchor="start" x="541.82" y="-1571.9" font-family="Times,serif" font-size="14.00"> &#160;&#160;cooldownTime: uint</text>
<text text-anchor="start" x="541.82" y="-1555.1" font-family="Times,serif" font-size="14.00"> &#160;&#160;zombies: Zombie[]</text>
<text text-anchor="start" x="541.82" y="-1538.3" font-family="Times,serif" font-size="14.00"> &#160;&#160;zombieToOwner: mapping(ZombieId=&gt;address)</text>
<text text-anchor="start" x="541.82" y="-1521.5" font-family="Times,serif" font-size="14.00"> &#160;&#160;ownerZombieCount: mapping(address=&gt;uint)</text>
<polyline fill="none" stroke="black" points="533.82,-1513.3 833.87,-1513.3 "/>
<text text-anchor="start" x="541.82" y="-1496.7" font-family="Times,serif" font-size="14.00">Private:</text>
<text text-anchor="start" x="541.82" y="-1479.9" font-family="Times,serif" font-size="14.00"> &#160;&#160;&#160;_generateRandomDna(_str: string): uint</text>
<text text-anchor="start" x="541.82" y="-1463.1" font-family="Times,serif" font-size="14.00">Internal:</text>
<text text-anchor="start" x="541.82" y="-1446.3" font-family="Times,serif" font-size="14.00"> &#160;&#160;&#160;_createZombie(_name: string, _dna: uint)</text>
<text text-anchor="start" x="541.82" y="-1429.5" font-family="Times,serif" font-size="14.00"> &#160;&#160;&#160;_triggerCooldown(_zombie: Zombie)</text>
<text text-anchor="start" x="541.82" y="-1412.7" font-family="Times,serif" font-size="14.00"> &#160;&#160;&#160;_isReady(_zombie: Zombie): bool</text>
<text text-anchor="start" x="541.82" y="-1395.9" font-family="Times,serif" font-size="14.00">Public:</text>
<text text-anchor="start" x="541.82" y="-1379.1" font-family="Times,serif" font-size="14.00"> &#160;&#160;&#160;constructor()</text>
<text text-anchor="start" x="541.82" y="-1362.3" font-family="Times,serif" font-size="14.00"> &#160;&#160;&#160;createRandomZombie(_name: string)</text>
</g>
<!-- 8&#45;&gt;1 -->
<g id="edge7" class="edge">
<title>8&#45;&gt;1</title>
<path fill="none" stroke="black" d="M786.43,-1680.98C788.63,-1684.47 790.83,-1687.96 793.03,-1691.45"/>
<polygon fill="none" stroke="black" points="784.29,-1697.27 809.17,-1717.05 802.05,-1686.07 784.29,-1697.27"/>
</g>
<!-- 8&#45;&gt;6 -->
<g id="edge6" class="edge">
<title>8&#45;&gt;6</title>
<path fill="none" stroke="black" d="M651.2,-1680.55C648.97,-1692.87 646.82,-1705.12 644.84,-1717 624.42,-1839.57 630.63,-1872.03 606.84,-1994 604.83,-2004.32 602.41,-2015.15 599.87,-2025.75"/>
<polygon fill="none" stroke="black" points="589.6,-2023.57 592.41,-2055.23 609.95,-2028.72 589.6,-2023.57"/>
</g>
<!-- 8&#45;&gt;7 -->
<g id="edge8" class="edge">
<title>8&#45;&gt;7</title>
<path fill="none" stroke="black" d="M597.71,-1680.98C582.79,-1709.17 567.76,-1737.56 554.3,-1762.98"/>
<polygon fill="black" stroke="black" points="551.19,-1761.37 549.61,-1771.84 557.38,-1764.64 551.19,-1761.37"/>
</g>
<!-- 9 -->
<g id="node10" class="node">
<title>9</title>
<polygon fill="#f2f2f2" stroke="black" points="430.66,-1091.5 430.66,-1317.1 937.03,-1317.1 937.03,-1091.5 430.66,-1091.5"/>
<text text-anchor="middle" x="683.84" y="-1300.5" font-family="Times,serif" font-size="14.00">ZombieFeeding</text>
<text text-anchor="middle" x="683.84" y="-1283.7" font-family="Times,serif" font-size="14.00">out/ZombieFactory&#45;flatten.sol</text>
<polyline fill="none" stroke="black" points="430.66,-1275.5 937.03,-1275.5 "/>
<text text-anchor="start" x="438.66" y="-1258.9" font-family="Times,serif" font-size="14.00">Public:</text>
<text text-anchor="start" x="438.66" y="-1242.1" font-family="Times,serif" font-size="14.00"> &#160;&#160;kittyContract: KittyInterface</text>
<polyline fill="none" stroke="black" points="430.66,-1233.9 937.03,-1233.9 "/>
<text text-anchor="start" x="438.66" y="-1217.3" font-family="Times,serif" font-size="14.00">Internal:</text>
<text text-anchor="start" x="438.66" y="-1200.5" font-family="Times,serif" font-size="14.00"> &#160;&#160;&#160;feedAndMultiply(_id: ZombieId, _targetDna: uint, _species: string) &lt;&lt;isOwnerOf&gt;&gt;</text>
<text text-anchor="start" x="438.66" y="-1183.7" font-family="Times,serif" font-size="14.00">External:</text>
<text text-anchor="start" x="438.66" y="-1166.9" font-family="Times,serif" font-size="14.00"> &#160;&#160;&#160;setKittyContract(_address: address) &lt;&lt;onlyOwner&gt;&gt;</text>
<text text-anchor="start" x="438.66" y="-1150.1" font-family="Times,serif" font-size="14.00">Public:</text>
<text text-anchor="start" x="438.66" y="-1133.3" font-family="Times,serif" font-size="14.00"> &#160;&#160;&#160;&lt;&lt;modifier&gt;&gt; isOwnerOf(_id: ZombieId)</text>
<text text-anchor="start" x="438.66" y="-1116.5" font-family="Times,serif" font-size="14.00"> &#160;&#160;&#160;constructor(_ckAddress: address)</text>
<text text-anchor="start" x="438.66" y="-1099.7" font-family="Times,serif" font-size="14.00"> &#160;&#160;&#160;feedOnKitty(_zombieId: ZombieId, _kittyId: uint)</text>
</g>
<!-- 9&#45;&gt;7 -->
<g id="edge11" class="edge">
<title>9&#45;&gt;7</title>
<path fill="none" stroke="black" stroke-dasharray="5,2" d="M546.6,-1317.32C538.11,-1328.77 530.65,-1340.9 524.84,-1353.6 464.67,-1485.14 474.62,-1657.03 489.01,-1761.42"/>
<polygon fill="black" stroke="black" points="485.59,-1762.21 490.46,-1771.62 492.52,-1761.22 485.59,-1762.21"/>
</g>
<!-- 9&#45;&gt;8 -->
<g id="edge9" class="edge">
<title>9&#45;&gt;8</title>
<path fill="none" stroke="black" d="M683.84,-1317.14C683.84,-1319.39 683.84,-1321.66 683.84,-1323.94"/>
<polygon fill="none" stroke="black" points="673.34,-1324 683.84,-1354 694.34,-1324 673.34,-1324"/>
</g>
<!-- 11 -->
<g id="node12" class="node">
<title>11</title>
<polygon fill="#f2f2f2" stroke="black" points="851.55,-1467.3 851.55,-1567.3 2202.13,-1567.3 2202.13,-1467.3 851.55,-1467.3"/>
<text text-anchor="middle" x="1526.84" y="-1550.7" font-family="Times,serif" font-size="14.00">&lt;&lt;Abstract&gt;&gt;</text>
<text text-anchor="middle" x="1526.84" y="-1533.9" font-family="Times,serif" font-size="14.00">KittyInterface</text>
<text text-anchor="middle" x="1526.84" y="-1517.1" font-family="Times,serif" font-size="14.00">out/ZombieFactory&#45;flatten.sol</text>
<polyline fill="none" stroke="black" points="851.55,-1508.9 2202.13,-1508.9 "/>
<text text-anchor="start" x="859.55" y="-1492.3" font-family="Times,serif" font-size="14.00">External:</text>
<text text-anchor="start" x="859.55" y="-1475.5" font-family="Times,serif" font-size="14.00"> &#160;&#160;&#160;&lt;&lt;abstract&gt;&gt; getKitty(_id: uint256): (isGestating: bool, isReady: bool, cooldownIndex: uint256, nextActionAt: uint256, siringWithId: uint256, birthTime: uint256, matronId: uint256, sireId: uint256, generation: uint256, genes: uint256)</text>
</g>
<!-- 9&#45;&gt;11 -->
<g id="edge10" class="edge">
<title>9&#45;&gt;11</title>
<path fill="none" stroke="black" d="M937.06,-1298.72C1083.45,-1352.72 1262.25,-1418.69 1384.35,-1463.73"/>
<polygon fill="black" stroke="black" points="1383.18,-1467.03 1393.78,-1467.21 1385.6,-1460.46 1383.18,-1467.03"/>
</g>
<!-- 10 -->
<g id="node11" class="node">
<title>10</title>
<polygon fill="#f2f2f2" stroke="black" points="440.59,-795.3 440.59,-1054.5 913.09,-1054.5 913.09,-795.3 440.59,-795.3"/>
<text text-anchor="middle" x="676.84" y="-1037.9" font-family="Times,serif" font-size="14.00">ZombieHelper</text>
<text text-anchor="middle" x="676.84" y="-1021.1" font-family="Times,serif" font-size="14.00">out/ZombieFactory&#45;flatten.sol</text>
<polyline fill="none" stroke="black" points="440.59,-1012.9 913.09,-1012.9 "/>
<text text-anchor="start" x="448.59" y="-996.3" font-family="Times,serif" font-size="14.00">Public:</text>
<text text-anchor="start" x="448.59" y="-979.5" font-family="Times,serif" font-size="14.00"> &#160;&#160;levelUpFee: uint</text>
<polyline fill="none" stroke="black" points="440.59,-971.3 913.09,-971.3 "/>
<text text-anchor="start" x="448.59" y="-954.7" font-family="Times,serif" font-size="14.00">External:</text>
<text text-anchor="start" x="448.59" y="-937.9" font-family="Times,serif" font-size="14.00"> &#160;&#160;&#160;&lt;&lt;payable&gt;&gt; levelUp(_id: ZombieId)</text>
<text text-anchor="start" x="448.59" y="-921.1" font-family="Times,serif" font-size="14.00"> &#160;&#160;&#160;changeName(_id: ZombieId, _newName: string) &lt;&lt;aboveLevel, isOwnerOf&gt;&gt;</text>
<text text-anchor="start" x="448.59" y="-904.3" font-family="Times,serif" font-size="14.00"> &#160;&#160;&#160;changeDna(_id: ZombieId, _newDna: uint) &lt;&lt;aboveLevel, isOwnerOf&gt;&gt;</text>
<text text-anchor="start" x="448.59" y="-887.5" font-family="Times,serif" font-size="14.00"> &#160;&#160;&#160;getZombiesByOwner(_owner: address): uint[]</text>
<text text-anchor="start" x="448.59" y="-870.7" font-family="Times,serif" font-size="14.00"> &#160;&#160;&#160;withdraw() &lt;&lt;onlyOwner&gt;&gt;</text>
<text text-anchor="start" x="448.59" y="-853.9" font-family="Times,serif" font-size="14.00"> &#160;&#160;&#160;setLevelUpFee(_fee: uint) &lt;&lt;onlyOwner&gt;&gt;</text>
<text text-anchor="start" x="448.59" y="-837.1" font-family="Times,serif" font-size="14.00">Public:</text>
<text text-anchor="start" x="448.59" y="-820.3" font-family="Times,serif" font-size="14.00"> &#160;&#160;&#160;&lt;&lt;modifier&gt;&gt; aboveLevel(_level: uint, _id: ZombieId)</text>
<text text-anchor="start" x="448.59" y="-803.5" font-family="Times,serif" font-size="14.00"> &#160;&#160;&#160;constructor(_ckAddress: address)</text>
</g>
<!-- 10&#45;&gt;9 -->
<g id="edge12" class="edge">
<title>10&#45;&gt;9</title>
<path fill="none" stroke="black" d="M680.1,-1054.85C680.15,-1056.95 680.2,-1059.04 680.26,-1061.14"/>
<polygon fill="none" stroke="black" points="669.76,-1061.56 681.02,-1091.28 690.76,-1061.03 669.76,-1061.56"/>
</g>
<!-- 12 -->
<g id="node13" class="node">
<title>12</title>
<polygon fill="#f2f2f2" stroke="black" points="491.35,-503.1 491.35,-711.9 850.34,-711.9 850.34,-503.1 491.35,-503.1"/>
<text text-anchor="middle" x="670.84" y="-695.3" font-family="Times,serif" font-size="14.00">ZombieAttack</text>
<text text-anchor="middle" x="670.84" y="-678.5" font-family="Times,serif" font-size="14.00">out/ZombieFactory&#45;flatten.sol</text>
<polyline fill="none" stroke="black" points="491.35,-670.3 850.34,-670.3 "/>
<text text-anchor="start" x="499.35" y="-653.7" font-family="Times,serif" font-size="14.00">Public:</text>
<text text-anchor="start" x="499.35" y="-636.9" font-family="Times,serif" font-size="14.00"> &#160;&#160;randNonce: uint</text>
<text text-anchor="start" x="499.35" y="-620.1" font-family="Times,serif" font-size="14.00"> &#160;&#160;attackVictoryProbability: uint</text>
<polyline fill="none" stroke="black" points="491.35,-611.9 850.34,-611.9 "/>
<text text-anchor="start" x="499.35" y="-595.3" font-family="Times,serif" font-size="14.00">Internal:</text>
<text text-anchor="start" x="499.35" y="-578.5" font-family="Times,serif" font-size="14.00"> &#160;&#160;&#160;randMod(_modulus: uint): uint</text>
<text text-anchor="start" x="499.35" y="-561.7" font-family="Times,serif" font-size="14.00">External:</text>
<text text-anchor="start" x="499.35" y="-544.9" font-family="Times,serif" font-size="14.00"> &#160;&#160;&#160;attack(_id: ZombieId, _target: ZombieId) &lt;&lt;isOwnerOf&gt;&gt;</text>
<text text-anchor="start" x="499.35" y="-528.1" font-family="Times,serif" font-size="14.00">Public:</text>
<text text-anchor="start" x="499.35" y="-511.3" font-family="Times,serif" font-size="14.00"> &#160;&#160;&#160;constructor(_ckAddress: address)</text>
</g>
<!-- 12&#45;&gt;7 -->
<g id="edge14" class="edge">
<title>12&#45;&gt;7</title>
<path fill="none" stroke="black" stroke-dasharray="5,2" d="M543.46,-712.01C523.34,-727.88 502.64,-743.92 482.84,-758.8 460.66,-775.47 445.02,-770.38 431.84,-794.8 342.45,-960.41 442.63,-1535.48 486.92,-1761.89"/>
<polygon fill="black" stroke="black" points="483.5,-1762.61 488.86,-1771.75 490.37,-1761.26 483.5,-1762.61"/>
</g>
<!-- 12&#45;&gt;10 -->
<g id="edge13" class="edge">
<title>12&#45;&gt;10</title>
<path fill="none" stroke="black" d="M672.82,-712.21C673.14,-729.18 673.48,-747.09 673.82,-765.02"/>
<polygon fill="none" stroke="black" points="663.32,-765.27 674.39,-795.06 684.32,-764.87 663.32,-765.27"/>
</g>
<!-- 13 -->
<g id="node14" class="node">
<title>13</title>
<polygon fill="#f2f2f2" stroke="black" points="319.29,-97.3 319.29,-322.9 716.4,-322.9 716.4,-97.3 319.29,-97.3"/>
<text text-anchor="middle" x="517.84" y="-306.3" font-family="Times,serif" font-size="14.00">&lt;&lt;Abstract&gt;&gt;</text>
<text text-anchor="middle" x="517.84" y="-289.5" font-family="Times,serif" font-size="14.00">ZombieOwnership</text>
<text text-anchor="middle" x="517.84" y="-272.7" font-family="Times,serif" font-size="14.00">out/ZombieFactory&#45;flatten.sol</text>
<polyline fill="none" stroke="black" points="319.29,-264.5 716.4,-264.5 "/>
<text text-anchor="start" x="327.29" y="-247.9" font-family="Times,serif" font-size="14.00">Public:</text>
<text text-anchor="start" x="327.29" y="-231.1" font-family="Times,serif" font-size="14.00"> &#160;&#160;zombieApprovals: mapping(uint=&gt;address)</text>
<polyline fill="none" stroke="black" points="319.29,-222.9 716.4,-222.9 "/>
<text text-anchor="start" x="327.29" y="-206.3" font-family="Times,serif" font-size="14.00">Private:</text>
<text text-anchor="start" x="327.29" y="-189.5" font-family="Times,serif" font-size="14.00"> &#160;&#160;&#160;_transfer(_from: address, _to: address, _tokenId: uint256)</text>
<text text-anchor="start" x="327.29" y="-172.7" font-family="Times,serif" font-size="14.00">External:</text>
<text text-anchor="start" x="327.29" y="-155.9" font-family="Times,serif" font-size="14.00"> &#160;&#160;&#160;balanceOf(_owner: address): uint256</text>
<text text-anchor="start" x="327.29" y="-139.1" font-family="Times,serif" font-size="14.00"> &#160;&#160;&#160;ownerOf(_tokenId: uint256): (owner: address)</text>
<text text-anchor="start" x="327.29" y="-122.3" font-family="Times,serif" font-size="14.00"> &#160;&#160;&#160;transferFrom(_from: address, _to: address, _tokenId: uint256)</text>
<text text-anchor="start" x="327.29" y="-105.5" font-family="Times,serif" font-size="14.00"> &#160;&#160;&#160;approve(_approved: address, _tokenId: uint256) &lt;&lt;isOwnerOf&gt;&gt;</text>
</g>
<!-- 13&#45;&gt;3 -->
<g id="edge16" class="edge">
<title>13&#45;&gt;3</title>
<path fill="none" stroke="black" stroke-dasharray="5,2" d="M438.26,-323.08C414.21,-356.92 387.22,-394.91 360.99,-431.81"/>
<polygon fill="none" stroke="black" points="352.27,-425.95 343.45,-456.49 369.39,-438.12 352.27,-425.95"/>
</g>
<!-- 13&#45;&gt;12 -->
<g id="edge15" class="edge">
<title>13&#45;&gt;12</title>
<path fill="none" stroke="black" d="M561.18,-323.08C579.46,-370.33 600.87,-425.67 619.9,-474.85"/>
<polygon fill="none" stroke="black" points="610.17,-478.8 630.79,-502.98 629.75,-471.22 610.17,-478.8"/>
</g>
</g>
</svg>
